<?xml version="1.0" standalone="no"?>
<!DOCTYPE svg PUBLIC "-//W3C//DTD SVG 20010904//EN"
 "http://www.w3.org/TR/2001/REC-SVG-20010904/DTD/svg10.dtd">
<svg version="1.0" xmlns="http://www.w3.org/2000/svg"
 width="954.000000pt" height="954.000000pt" viewBox="0 0 954.000000 954.000000"
 preserveAspectRatio="xMidYMid meet">

<g transform="translate(0.000000,954.000000) scale(0.100000,-0.100000)"
fill="#000000" stroke="none">
<path d="M813 7325 l352 -514 593 -1 592 0 0 -2285 0 -2285 545 0 545 0 0
2285 0 2285 881 0 c489 0 879 4 877 9 -1 4 -167 236 -367 515 l-364 506 -2003
0 -2003 0 352 -515z"/>
<path d="M7687 5938 c-4 -2056 -1 -1943 -58 -2162 -59 -230 -193 -395 -388
-477 -160 -67 -319 -79 -1134 -86 -351 -3 -636 -9 -635 -13 2 -4 179 -222 393
-484 l390 -476 510 4 c549 3 600 7 825 62 560 137 913 507 1040 1092 55 252
53 169 57 2385 l4 2047 -500 0 -500 0 -4 -1892z"/>
</g>
</svg>
